PathFileType  4	(X/Y/Z) D:/Data/Berkelmans/SUB01/trc/slow_skatebelt
DataRate	CameraRate	NumFrames	NumMarkers	Units	OrigDataRate	OrigDataStartFrame	OrigNumFrames
100.0	100.0	9	31	m	100.0	1	800
Frame#	Time	LCAL			RCAL			C7			LSHO			RTIB2			RFEM2			LFEM2			RTIB3			RFEM1			LSIPS			RTIB1			LTIB2			RFEM3			RSHO			RKNEE_med			LKNEE_lat			RKNEE_lat			LMTP5			RMTP5			RSIAS			RSIPS			LSIAS			LKNEE_med			LANK_lat			LANK_med			RANK_lat			RANK_med			LTIB3			LTIB1			LFEM3			LFEM1			
		X1	Y1	Z1	X2	Y2	Z2	X3	Y3	Z3	X4	Y4	Z4	X5	Y5	Z5	X6	Y6	Z6	X7	Y7	Z7	X8	Y8	Z8	X9	Y9	Z9	X10	Y10	Z10	X11	Y11	Z11	X12	Y12	Z12	X13	Y13	Z13	X14	Y14	Z14	X15	Y15	Z15	X16	Y16	Z16	X17	Y17	Z17	X18	Y18	Z18	X19	Y19	Z19	X20	Y20	Z20	X21	Y21	Z21	X22	Y22	Z22	X23	Y23	Z23	X24	Y24	Z24	X25	Y25	Z25	X26	Y26	Z26	X27	Y27	Z27	X28	Y28	Z28	X29	Y29	Z29	X30	Y30	Z30	X31	Y31	Z31	

1	-2.9950000	-0.2519624	0.2190726	-0.0183203	-0.0550330	0.0628521	0.1326508	-0.1664413	1.3826450	0.0207467	-0.0884712	1.4342425	-0.1114676	0.0221873	0.3231016	0.2183797	0.0186074	0.5740959	0.2298702	0.0021378	0.5872711	-0.0983523	-0.0352799	0.3305848	0.1983599	-0.0440801	0.6609718	0.2479903	-0.1508224	1.0212724	0.0047291	0.0046940	0.3897556	0.2207217	-0.0499997	0.3947155	-0.1071932	-0.0364026	0.5811422	0.2079939	-0.0696482	1.3974655	0.2583146	0.0724757	0.5161810	0.0977210	0.0890798	0.4742374	-0.0882981	0.0861758	0.4985662	0.1890625	-0.1691894	0.0878628	-0.0994162	0.1134203	0.0472418	0.1824845	0.0620427	0.9875921	0.1656645	-0.1407301	1.0210577	0.1188912	0.0400132	0.9785365	-0.0573197	0.1038402	0.4863302	0.0111397	-0.1914565	0.2032439	-0.0755169	-0.1650688	0.1900407	0.0009280	0.0131415	0.1002004	0.1735969	0.0193654	0.1139778	0.0903062	-0.0739232	0.4294081	-0.0687185	-0.0175438	0.4549274	-0.0986733	-0.0404544	0.5896045	-0.0453186	-0.0678344	0.6636026	-0.0890048
2	-2.9850000	-0.2448824	0.2224808	-0.0168517	-0.0606277	0.0628979	0.1327583	-0.1662904	1.3832851	0.0218049	-0.0886751	1.4347346	-0.1106407	0.0173169	0.3229702	0.2190483	0.0151361	0.5739997	0.2311012	0.0069826	0.5880166	-0.0982493	-0.0399399	0.3306835	0.1990084	-0.0467989	0.6614209	0.2494042	-0.1516853	1.0215318	0.0054603	-0.0000915	0.3895734	0.2213539	-0.0428943	0.3996584	-0.1063299	-0.0395306	0.5814912	0.2095415	-0.0686784	1.3980949	0.2591237	0.0687419	0.5159332	0.0986298	0.0966903	0.4772461	-0.0891749	0.0820376	0.4980347	0.1900462	-0.1609820	0.0921786	-0.0984911	0.1079203	0.0472931	0.1826030	0.0613776	0.9877911	0.1662956	-0.1414895	1.0212964	0.1195493	0.0393056	0.9784696	-0.0568506	0.1121406	0.4899100	0.0108918	-0.1847855	0.2075768	-0.0745053	-0.1577763	0.1944835	0.0017249	0.0075140	0.1002216	0.1736986	0.0158454	0.1147345	0.0903981	-0.0653641	0.4334700	-0.0663642	-0.0097980	0.4591964	-0.0971827	-0.0345551	0.5903379	-0.0442871	-0.0641725	0.6639947	-0.0875685
3	-2.9750000	-0.2370533	0.2243767	-0.0158146	-0.0662301	0.0629801	0.1327152	-0.1662481	1.3841209	0.0226993	-0.0886068	1.4354290	-0.1099837	0.0120794	0.3228657	0.2196152	0.0116591	0.5744372	0.2318303	0.0104440	0.5890578	-0.0979663	-0.0450979	0.3308055	0.1992099	-0.0496519	0.6620641	0.2502923	-0.1521683	1.0219439	0.0058641	-0.0048852	0.3895283	0.2219593	-0.0364823	0.4041315	-0.1048848	-0.0432141	0.5825254	0.2118950	-0.0679739	1.3985474	0.2595915	0.0649644	0.5157544	0.0997812	0.1039292	0.4806974	-0.0900903	0.0779003	0.4977981	0.1910330	-0.1514971	0.0950977	-0.0974430	0.1023925	0.0472202	0.1827445	0.0606543	0.9880115	0.1671294	-0.1422359	1.0216410	0.1200620	0.0385961	0.9788158	-0.0562760	0.1189771	0.4935571	0.0099068	-0.1769476	0.2104451	-0.0733400	-0.1498360	0.1975637	0.0027359	0.0018563	0.1001564	0.1737755	0.0097099	0.1145412	0.0908440	-0.0581700	0.4373189	-0.0636918	-0.0026862	0.4636428	-0.0952502	-0.0292925	0.5912600	-0.0425689	-0.0609903	0.6643551	-0.0854029
4	-2.9650000	-0.2279090	0.2248369	-0.0148384	-0.0721479	0.0626349	0.1326808	-0.1659811	1.3849436	0.0234890	-0.0883592	1.4359904	-0.1094209	0.0067901	0.3227480	0.2202336	0.0077926	0.5746995	0.2326237	0.0136305	0.5904026	-0.0973373	-0.0500663	0.3310625	0.1996556	-0.0526962	0.6631152	0.2507236	-0.1528838	1.0223584	0.0062314	-0.0098689	0.3895981	0.2224635	-0.0303918	0.4078148	-0.1027431	-0.0469811	0.5831152	0.2126396	-0.0671142	1.3991401	0.2600804	0.0610257	0.5155271	0.1004362	0.1105406	0.4844750	-0.0911621	0.0734366	0.4973653	0.1918800	-0.1406366	0.0966606	-0.0963675	0.0966660	0.0472117	0.1828773	0.0598041	0.9883546	0.1676769	-0.1430820	1.0220484	0.1205389	0.0381428	0.9791792	-0.0558319	0.1260132	0.4973573	0.0093253	-0.1677333	0.2116156	-0.0724267	-0.1396424	0.1995038	0.0034155	-0.0036668	0.1001768	0.1739475	0.0043230	0.1146628	0.0908788	-0.0514255	0.4404294	-0.0608165	0.0030783	0.4673495	-0.0929032	-0.0242836	0.5925167	-0.0406569	-0.0584700	0.6646212	-0.0830616
5	-2.9550000	-0.2175953	0.2238355	-0.0136571	-0.0781004	0.0628481	0.1319630	-0.1681318	1.3865235	0.0226873	-0.0882286	1.4366056	-0.1089824	0.0008449	0.3228181	0.2203573	0.0034202	0.5748134	0.2329531	0.0152588	0.5922720	-0.0967399	-0.0543446	0.3312272	0.2005593	-0.0568880	0.6641083	0.2500961	-0.1563529	1.0238470	0.0049620	-0.0159093	0.3896639	0.2222711	-0.0257970	0.4111135	-0.1010020	-0.0498926	0.5840436	0.2136584	-0.0679218	1.3999299	0.2594313	0.0568448	0.5154936	0.1011739	0.1165547	0.4882856	-0.0923063	0.0679911	0.4973232	0.1918807	-0.1288306	0.0967458	-0.0954173	0.0911998	0.0474206	0.1828684	0.0590547	0.9886570	0.1684221	-0.1461988	1.0235693	0.1191932	0.0377229	0.9798980	-0.0552287	0.1323899	0.5013575	0.0085692	-0.1572148	0.2114324	-0.0717061	-0.1292699	0.2000814	0.0037961	-0.0085981	0.1006217	0.1747142	-0.0013889	0.1147783	0.0909650	-0.0441336	0.4417856	-0.0589366	0.0054066	0.4721933	-0.0922763	-0.0184139	0.5940015	-0.0398621	-0.0582148	0.6651710	-0.0816655
6	-2.9450000	-0.2065542	0.2212086	-0.0125238	-0.0831387	0.0625231	0.1327901	-0.1654823	1.3866434	0.0246051	-0.0881016	1.4373872	-0.1086473	-0.0039653	0.3228048	0.2211835	-0.0006808	0.5753032	0.2333892	0.0201766	0.5936236	-0.0952372	-0.0607687	0.3314814	0.2002295	-0.0593443	0.6650526	0.2503448	-0.1541249	1.0238546	0.0067003	-0.0202966	0.3896874	0.2232474	-0.0174595	0.4126928	-0.0989990	-0.0548920	0.5848586	0.2127140	-0.0660453	1.4006029	0.2605983	0.0524083	0.5152057	0.1018253	0.1220454	0.4922123	-0.0933737	0.0642749	0.4970656	0.1931882	-0.1158592	0.0957995	-0.0946965	0.0855451	0.0471539	0.1830938	0.0582613	0.9890437	0.1691153	-0.1445295	1.0233338	0.1209267	0.0373320	0.9807283	-0.0547080	0.1384631	0.5052921	0.0078364	-0.1466747	0.2099952	-0.0709358	-0.1172758	0.1993289	0.0043207	-0.0148135	0.1000858	0.1740642	-0.0070513	0.1145919	0.0911960	-0.0384486	0.4429217	-0.0561860	0.0141620	0.4730846	-0.0880304	-0.0152472	0.5950247	-0.0371723	-0.0547283	0.6648468	-0.0797930
7	-2.9350000	-0.1949563	0.2171384	-0.0116814	-0.0887946	0.0626584	0.1328723	-0.1650058	1.3877020	0.0250137	-0.0878027	1.4382350	-0.1083860	-0.0093256	0.3228015	0.2215823	-0.0048023	0.5756702	0.2335672	0.0238195	0.5954288	-0.0939834	-0.0660451	0.3314777	0.2005661	-0.0629274	0.6659677	0.2499785	-0.1546230	1.0246866	0.0067109	-0.0256222	0.3897857	0.2235608	-0.0105803	0.4136070	-0.0988257	-0.0589649	0.5857079	0.2123383	-0.0652646	1.4014931	0.2608236	0.0476537	0.5150578	0.1021825	0.1268538	0.4961535	-0.0944150	0.0595117	0.4968852	0.1936577	-0.1016029	0.0937592	-0.0942012	0.0798871	0.0471403	0.1831726	0.0574663	0.9894715	0.1696754	-0.1452472	1.0239311	0.1211448	0.0369273	0.9817053	-0.0542864	0.1437245	0.5090595	0.0068811	-0.1350285	0.2072653	-0.0705496	-0.1048585	0.1976804	0.0045824	-0.0203754	0.1001038	0.1741347	-0.0126320	0.1147886	0.0911106	-0.0323600	0.4428217	-0.0553854	0.0198007	0.4744564	-0.0866778	-0.0118225	0.5965009	-0.0358950	-0.0531063	0.6648369	-0.0791238
8	-2.9250000	-0.1850827	0.2117723	-0.0118822	-0.0943439	0.0627593	0.1328544	-0.1648068	1.3886324	0.0254526	-0.0875941	1.4389134	-0.1081717	-0.0152633	0.3226400	0.2219954	-0.0094740	0.5765374	0.2335090	0.0270114	0.5974569	-0.0929132	-0.0715326	0.3313142	0.2008415	-0.0666019	0.6669448	0.2493451	-0.1553712	1.0258090	0.0068216	-0.0307640	0.3897229	0.2239644	-0.0037591	0.4135861	-0.0997473	-0.0630686	0.5868824	0.2119029	-0.0645945	1.4023581	0.2609601	0.0425112	0.5148079	0.1027637	0.1312838	0.4998676	-0.0952870	0.0546739	0.4966827	0.1939881	-0.0858067	0.0909787	-0.0941207	0.0745666	0.0471858	0.1833657	0.0567388	0.9897969	0.1702579	-0.1458006	1.0249421	0.1211689	0.0364775	0.9825328	-0.0538647	0.1483845	0.5127063	0.0057688	-0.1229630	0.2035851	-0.0703937	-0.0917612	0.1948961	0.0045190	-0.0259288	0.1000559	0.1742137	-0.0180747	0.1147971	0.0912212	-0.0264770	0.4420107	-0.0556710	0.0251405	0.4751385	-0.0869157	-0.0089924	0.5977927	-0.0351779	-0.0514094	0.6650303	-0.0791465
9	-2.9150000	-0.1722266	0.2047648	-0.0117109	-0.1006798	0.0629616	0.1320036	-0.1668237	1.3904974	0.0242740	-0.0871852	1.4398578	-0.1080582	-0.0214763	0.3225343	0.2217255	-0.0148783	0.5771001	0.2331002	0.0287496	0.5999052	-0.0927374	-0.0762189	0.3316186	0.2015783	-0.0712768	0.6683363	0.2479509	-0.1587434	1.0276486	0.0052600	-0.0368267	0.3898187	0.2237201	0.0013608	0.4126559	-0.1015398	-0.0660784	0.5879774	0.2123263	-0.0654132	1.4036148	0.2601136	0.0374166	0.5146806	0.1029690	0.1354099	0.5032411	-0.0960238	0.0486797	0.4965409	0.1935558	-0.0689468	0.0879053	-0.0945595	0.0686065	0.0472791	0.1831969	0.0559768	0.9901953	0.1706067	-0.1485950	1.0266795	0.1195350	0.0359607	0.9835072	-0.0535873	0.1522971	0.5161138	0.0046781	-0.1096908	0.1987905	-0.0705170	-0.0787973	0.1912816	0.0040295	-0.0309106	0.1006258	0.1749709	-0.0238238	0.1145760	0.0912358	-0.0223136	0.4408717	-0.0586794	0.0282824	0.4747609	-0.0897944	-0.0076518	0.5993677	-0.0362541	-0.0513873	0.6658728	-0.0802300
